{
    "asset" : {
        "generator" : "Khronos glTF Blender I/O v1.5.17",
        "version" : "2.0"
    },
    "scene" : 0,
    "scenes" : [
        {
            "name" : "Scene",
            "nodes" : [
                0,
                1
            ]
        }
    ],
    "nodes" : [
        {
            "mesh" : 0,
            "name" : "phone",
            "rotation" : [
                0.010960753075778484,
                0.7062575221061707,
                0.002263702219352126,
                0.7078665494918823
            ],
            "scale" : [
                0.10822701454162598,
                1,
                1
            ],
            "translation" : [
                -0.0010372338583692908,
                1.0101454257965088,
                -0.030435189604759216
            ]
        },
        {
            "name" : "Camera.001",
            "rotation" : [
                0.689293384552002,
                0.0047416770830750465,
                -0.004511519800871611,
                0.7244528532028198
            ],
            "translation" : [
                0.034140873700380325,
                1.467116117477417,
                10.789083480834961
            ]
        }
    ],
    "materials" : [
        {
            "doubleSided" : true,
            "name" : "material ra dijenengi asu",
            "pbrMetallicRoughness" : {
                "baseColorFactor" : [
                    0.025923684239387512,
                    0.04304509237408638,
                    0.060719482600688934,
                    1
                ],
                "metallicFactor" : 0,
                "roughnessFactor" : 0.5
            }
        },
        {
            "doubleSided" : true,
            "name" : "jenengono materiale cok",
            "pbrMetallicRoughness" : {
                "baseColorFactor" : [
                    0,
                    0,
                    0,
                    1
                ],
                "metallicFactor" : 0,
                "roughnessFactor" : 0.75
            }
        },
        {
            "doubleSided" : true,
            "name" : "lha iyo",
            "pbrMetallicRoughness" : {
                "baseColorFactor" : [
                    0.0188487246632576,
                    0.0188487246632576,
                    0.0188487246632576,
                    1
                ],
                "metallicFactor" : 0,
                "roughnessFactor" : 0.5
            }
        }
    ],
    "meshes" : [
        {
            "name" : "Cube.003",
            "primitives" : [
                {
                    "attributes" : {
                        "POSITION" : 0,
                        "NORMAL" : 1,
                        "TEXCOORD_0" : 2
                    },
                    "indices" : 3,
                    "material" : 0
                },
                {
                    "attributes" : {
                        "POSITION" : 4,
                        "NORMAL" : 5,
                        "TEXCOORD_0" : 6
                    },
                    "indices" : 7,
                    "material" : 1
                },
                {
                    "attributes" : {
                        "POSITION" : 8,
                        "NORMAL" : 9,
                        "TEXCOORD_0" : 10
                    },
                    "indices" : 11,
                    "material" : 2
                }
            ]
        }
    ],
    "accessors" : [
        {
            "bufferView" : 0,
            "componentType" : 5126,
            "count" : 7547,
            "max" : [
                0.22202974557876587,
                0.840509295463562,
                0.44995492696762085
            ],
            "min" : [
                -0.7033895254135132,
                -1.0249789953231812,
                -0.4735564589500427
            ],
            "type" : "VEC3"
        },
        {
            "bufferView" : 1,
            "componentType" : 5126,
            "count" : 7547,
            "type" : "VEC3"
        },
        {
            "bufferView" : 2,
            "componentType" : 5126,
            "count" : 7547,
            "type" : "VEC2"
        },
        {
            "bufferView" : 3,
            "componentType" : 5123,
            "count" : 14817,
            "type" : "SCALAR"
        },
        {
            "bufferView" : 4,
            "componentType" : 5126,
            "count" : 97,
            "max" : [
                -0.6844114661216736,
                0.8376425504684448,
                0.4410378336906433
            ],
            "min" : [
                -0.6844114661216736,
                -1.021709680557251,
                -0.45966988801956177
            ],
            "type" : "VEC3"
        },
        {
            "bufferView" : 5,
            "componentType" : 5126,
            "count" : 97,
            "type" : "VEC3"
        },
        {
            "bufferView" : 6,
            "componentType" : 5126,
            "count" : 97,
            "type" : "VEC2"
        },
        {
            "bufferView" : 7,
            "componentType" : 5123,
            "count" : 285,
            "type" : "SCALAR"
        },
        {
            "bufferView" : 8,
            "componentType" : 5126,
            "count" : 638,
            "max" : [
                -0.07021984457969666,
                0.7877532243728638,
                0.10798187553882599
            ],
            "min" : [
                -0.6863628029823303,
                -1.025514006614685,
                -0.05548648536205292
            ],
            "type" : "VEC3"
        },
        {
            "bufferView" : 9,
            "componentType" : 5126,
            "count" : 638,
            "type" : "VEC3"
        },
        {
            "bufferView" : 10,
            "componentType" : 5126,
            "count" : 638,
            "type" : "VEC2"
        },
        {
            "bufferView" : 11,
            "componentType" : 5123,
            "count" : 1512,
            "type" : "SCALAR"
        }
    ],
    "bufferViews" : [
        {
            "buffer" : 0,
            "byteLength" : 90564,
            "byteOffset" : 0
        },
        {
            "buffer" : 0,
            "byteLength" : 90564,
            "byteOffset" : 90564
        },
        {
            "buffer" : 0,
            "byteLength" : 60376,
            "byteOffset" : 181128
        },
        {
            "buffer" : 0,
            "byteLength" : 29634,
            "byteOffset" : 241504
        },
        {
            "buffer" : 0,
            "byteLength" : 1164,
            "byteOffset" : 271140
        },
        {
            "buffer" : 0,
            "byteLength" : 1164,
            "byteOffset" : 272304
        },
        {
            "buffer" : 0,
            "byteLength" : 776,
            "byteOffset" : 273468
        },
        {
            "buffer" : 0,
            "byteLength" : 570,
            "byteOffset" : 274244
        },
        {
            "buffer" : 0,
            "byteLength" : 7656,
            "byteOffset" : 274816
        },
        {
            "buffer" : 0,
            "byteLength" : 7656,
            "byteOffset" : 282472
        },
        {
            "buffer" : 0,
            "byteLength" : 5104,
            "byteOffset" : 290128
        },
        {
            "buffer" : 0,
            "byteLength" : 3024,
            "byteOffset" : 295232
        }
    ],
    "buffers" : [
        {
            "byteLength" : 298256,
            "uri" : "data:application/octet-stream;base64,"
        }
    ]
}
